<?xml version="1.0" encoding="UTF-8"?>
<svg id="Layer_1" xmlns="http://www.w3.org/2000/svg" xmlns:xlink="http://www.w3.org/1999/xlink" version="1.1" viewBox="0 0 240 128">
  <!-- Generator: Adobe Illustrator 29.5.0, SVG Export Plug-In . SVG Version: 2.1.0 Build 137)  -->
  <defs>
    <style>
      .st0 {
        fill: #49b749;
      }

      .st1 {
        fill: url(#linear-gradient1);
      }

      .st2 {
        fill: #231f20;
      }

      .st3 {
        fill: #231f20;
      }

      .st4 {
        fill: url(#linear-gradient);
      }

      .st5 {
        fill: #fff;
      }

      .st6 {
        fill: #ed2024;
      }

      .st7 {
        fill: #f6bc18;
      }
    </style>
    <linearGradient id="linear-gradient" x1="99.22" y1="65.12" x2="99.22" y2="103.41" gradientUnits="userSpaceOnUse">
      <stop offset="0" stop-color="#f58f87"/>
      <stop offset=".43" stop-color="#f16f6b"/>
      <stop offset=".82" stop-color="#ee4f4f"/>
    </linearGradient>
    <linearGradient id="linear-gradient1" x1="60.91" y1="68.64" x2="60.91" y2="31.38" gradientUnits="userSpaceOnUse">
      <stop offset="0" stop-color="#b156a1"/>
      <stop offset="1" stop-color="#5e3e80"/>
    </linearGradient>
  </defs>
  <g>
    <path class="st2" d="M191.24,25.49l-91.45,91.45,7.7-.94c.25-.03.51-.07.76-.12.11-.02.48-.08.48-.08.26-.04.52-.08.85-.15,2.03-.41,4.01-1.03,5.89-1.87L197.59,31.66c-1.83-2.33-3.97-4.41-6.35-6.17Z"/>
    <path class="st2" d="M156.71,22.78c-.24-.01-.49-.02-.73-.02h-9.39L59.69,109.66c.85.46,1.73.89,2.63,1.28,2.17.93,4.39,1.58,6.63,1.99L160.91,20.97c-1.43.51-2.84,1.1-4.19,1.81Z"/>
    <path class="st2" d="M173.88,19.17l-95.65,95.65c.58.45,1.2.86,1.84,1.23.43.25.87.47,1.31.68,1.91.88,3.92,1.35,6,1.46L184.08,21.48c-3.19-1.29-6.62-2.1-10.21-2.32Z"/>
    <path class="st2" d="M230,68.38c0-2.98-.98-5.72-2.62-7.95l-52.71,52.71h4.31c1.22,0,2.43-.17,3.58-.49,1.16.32,2.36.49,3.58.49h1.05l42.81-42.81v-1.95Z"/>
    <path class="st2" d="M216.54,54.91h-7.34l-57.96,57.96c1.09-.21,2.15-.54,3.14-1,1.74.82,3.68,1.27,5.69,1.27h3.43l57.46-57.46c-1.39-.49-2.87-.76-4.43-.76Z"/>
    <path class="st2" d="M201.79,38.63l-74.51,74.51h1.75c1.88,0,3.67-.39,5.3-1.09,1.65.71,3.45,1.09,5.28,1.09h.2l64.61-64.61c-.36-3.49-1.27-6.81-2.63-9.89Z"/>
    <path class="st2" d="M88.04,22.76h-10.37c-.05-.62-.16-1.24-.3-1.85l-55.99,55.99c0,2.92.6,5.81,1.78,8.6.1.23.2.46.31.69l-.33,1.49L88.04,22.76Z"/>
    <path class="st2" d="M134.44,22.76c-.92,0-1.83.09-2.72.28-.89-.18-1.8-.28-2.72-.28h-6.1L33.89,111.77c1.15.36,2.31.67,3.49.93,1.28.28,2.66.47,4.1.57.86.06,1.73.09,2.61.09.24,0,.49,0,.74,0L135.42,22.76h-.98Z"/>
    <path class="st2" d="M230,94.02v-3.41c0-2.34-.61-4.6-1.72-6.58.28-.5.53-1.02.74-1.55l-30.67,30.67h12.53l19.12-19.12Z"/>
    <path class="st2" d="M226.62,108.57l-1.19,1.19c.42-.37.82-.77,1.19-1.19Z"/>
    <path class="st2" d="M73.39,13.73c-2.29-2.24-5.28-3.67-8.55-3.97L15.65,58.94l2.66,9.86L73.39,13.73Z"/>
    <path class="st2" d="M99.21,22.76L21.5,100.47c.64,3.05,2.31,5.81,4.74,7.78L111.73,22.76h-12.53Z"/>
    <path class="st2" d="M42.39,21.03c-1.03.49-1.99,1.11-2.84,1.85-.75.1-1.48.26-2.19.48-1.27-.39-2.61-.6-3.97-.6h-5.25l-17.53,17.53,2.66,9.86,29.12-29.12Z"/>
  </g>
  <g>
    <path class="st7" d="M204.45,54.91c.09-1.01.14-2.02.14-3.04,0-1.13-.06-2.25-.17-3.35l-64.61,64.61h8.86c.88,0,1.73-.1,2.56-.26l57.96-57.96h-4.75Z"/>
    <path class="st7" d="M197.59,31.66l-82.12,82.12c.63-.28,1.26-.58,1.87-.91.86.17,1.74.26,2.62.26h7.32l74.51-74.51c-1.11-2.5-2.52-4.84-4.2-6.97Z"/>
    <path class="st7" d="M229.02,82.47c.64-1.58.98-3.28.98-5.03v-7.11l-42.81,42.81h11.16l30.67-30.67Z"/>
    <path class="st7" d="M230,99.67v-5.65l-19.12,19.12h5.65c3.41,0,6.52-1.28,8.89-3.38l1.19-1.19c2.1-2.38,3.38-5.48,3.38-8.89Z"/>
    <path class="st7" d="M171.81,19.09c-3.76,0-7.43.65-10.91,1.88l-91.95,91.95c1.71.31,3.44.47,5.17.47.8,0,1.61-.03,2.41-.1.53.54,1.1,1.04,1.7,1.51L173.88,19.17c-.68-.04-1.37-.07-2.06-.07Z"/>
    <path class="st7" d="M220.96,55.68l-57.46,57.46h5.63c.13,0,.26,0,.39,0,.13,0,.26,0,.39,0h4.76l52.71-52.71c-1.6-2.17-3.82-3.84-6.41-4.75Z"/>
    <path class="st7" d="M184.08,21.48l-96.7,96.7c.28.01.55.04.83.04.66,0,1.33-.04,1.98-.12l9.59-1.17L191.24,25.49c-2.19-1.62-4.6-2.97-7.16-4.01Z"/>
    <path class="st7" d="M77.01,19.57c-.75-2.27-2.01-4.25-3.62-5.84l-55.07,55.07.52,1.93c.5,1.85,1.39,3.55,2.57,4.99-.02.39-.03.77-.03,1.16,0,0,0,.01,0,.02l55.99-55.99c-.1-.45-.21-.9-.36-1.34Z"/>
    <path class="st7" d="M23.46,22.76c-4.16,0-8.16,1.97-10.69,5.28-2.53,3.31-3.39,7.68-2.31,11.7l.15.55,17.53-17.53h-4.68Z"/>
    <path class="st7" d="M135.42,22.76L44.83,113.36c.11,0,.21,0,.32,0,.53,0,1.05-.01,1.59-.03.81-.03,1.48-.08,2.08-.16,2.78-.34,5.44-1.07,7.91-2.17.95-.43,1.87-.91,2.74-1.44.07.04.14.07.22.11L146.59,22.76h-11.16Z"/>
    <path class="st7" d="M64.83,9.76c-.42-.04-.85-.06-1.28-.06-3.76,0-7.29,1.4-10.52,4.16-3.06.78-6.68,2.56-10.04,6.87-.02.02-.06.05-.1.07-.17.07-.34.16-.51.24l-29.12,29.12,2.37,8.79L64.83,9.76Z"/>
    <path class="st7" d="M90.97,22.76c-.29,0-.59,0-.88.03-.3-.02-.59-.03-.88-.03h-1.16L23.13,87.68l-1.6,7.16c-.42,1.9-.4,3.81-.03,5.63L99.21,22.76h-8.24Z"/>
    <path class="st7" d="M118.81,22.76c-1.07,0-2.13.13-3.16.37-1.02-.25-2.08-.37-3.15-.37h-.78L26.24,108.25c1.08.88,2.31,1.61,3.66,2.12,1.52.57,2.83,1.03,3.88,1.37.04.01.07.02.11.03L122.9,22.76h-4.08Z"/>
  </g>
  <path class="st7" d="M88.22,110.99c-1.32,0-2.6-.28-3.8-.84-.27-.12-.51-.25-.74-.38-1.72-1-3.05-2.49-3.82-4.32v-.02c-1.89.48-3.81.72-5.74.72-3.02,0-6.04-.63-8.96-1.88-2.2-.94-4.21-2.18-6-3.7-.09.1-.19.2-.28.29-1.43,1.46-3.15,2.64-5.11,3.52-1.82.81-3.79,1.35-5.87,1.6-.36.05-.83.08-1.44.11-.47.02-.95.02-1.45.03-.29,0-.61.01-.93.01-.7,0-1.41-.02-2.09-.07-1.1-.08-2.13-.22-3.08-.43-.97-.22-1.96-.48-2.95-.79-.93-.29-2.1-.71-3.5-1.23-2.88-1.09-4.55-4.18-3.88-7.18l2.07-9.28c.13-.58.35-1.15.64-1.67-.58-.89-1.07-1.82-1.48-2.79-.8-1.89-1.2-3.84-1.2-5.79,0-1.38.18-2.73.53-4.05-1.61-.77-2.85-2.22-3.32-3.99l-8.37-30.99c-.5-1.86-.1-3.88,1.07-5.41s3.02-2.44,4.94-2.44h9.93c1.47,0,2.87.52,3.97,1.43,1.1-.91,2.5-1.43,3.97-1.43h1.62c.65-1.2,1.71-2.14,3-2.64.01,0,1.58-.69,2.71-2.15,2.72-3.5,5.44-4.36,7.79-4.65,2.32-2.45,4.65-3.64,7.1-3.64,3.02,0,5.61,1.92,6.58,4.89.79,2.4.09,4.45-.52,5.72.49.75.87,1.57,1.15,2.46h18.44c.29,0,.59.02.88.06.29-.04.59-.06.88-.06h21.54c1.11,0,2.2.3,3.14.85.95-.56,2.04-.85,3.16-.85h10.19c.95,0,1.88.21,2.72.62.84-.41,1.77-.62,2.72-.62h21.54c.71,0,1.42.12,2.08.36,4.1-2.64,8.84-4.03,13.75-4.03,14.09,0,25.54,11.46,25.54,25.54,0,3.56-.74,7.06-2.16,10.28h21.34c3.43,0,6.23,2.79,6.23,6.23v9.06c0,1.78-.76,3.46-2.07,4.63v3.9c1.31,1.18,2.07,2.86,2.07,4.63v9.07c0,3.43-2.79,6.23-6.23,6.23h-30.39c-1.29,0-2.55-.4-3.59-1.13-1.04.73-2.29,1.13-3.58,1.13h-9.06c-.13,0-.26,0-.39-.01-.13,0-.26.01-.39.01h-9.07c-2.49,0-4.71-1.49-5.7-3.71h0c-.98,2.23-3.2,3.71-5.7,3.71h-9.07c-1.97,0-3.84-.95-5.01-2.53-.1-.13-.19-.27-.28-.41-1.1,1.76-3.06,2.94-5.29,2.94h-9.06c-1.25,0-2.44-.36-3.45-1.04-2.47,1.83-5.27,3.07-8.35,3.69-.23.05-.39.07-.56.1,0,0-.51.09-.63.1-.07.02-.23.04-.39.06l-17.26,2.1c-.37.04-.74.07-1.11.07Z"/>
  <g>
    <path class="st3" d="M88.22,109.54c-1.11,0-2.18-.24-3.19-.7-.23-.11-.43-.21-.62-.32-1.45-.84-2.56-2.09-3.21-3.63l-.51-1.19c-2.14.68-4.34,1.02-6.56,1.02-2.83,0-5.65-.59-8.39-1.77-2.52-1.07-4.77-2.57-6.71-4.45-.36.48-.76.93-1.17,1.36-1.31,1.33-2.88,2.41-4.67,3.21-1.68.75-3.51,1.25-5.44,1.48-.34.05-.76.08-1.32.1-.45.02-.92.02-1.39.02-.31,0-.62.01-.93.01-.67,0-1.35-.02-1.99-.07-1.03-.07-2-.21-2.88-.4-.93-.21-1.87-.46-2.82-.76-.9-.29-2.06-.69-3.42-1.21-2.21-.84-3.49-3.21-2.97-5.51l2.07-9.28c.16-.74.5-1.42.98-2-.77-1.05-1.4-2.17-1.9-3.34-.72-1.71-1.09-3.47-1.09-5.23,0-1.38.2-2.75.59-4.05.09-.31.2-.61.31-.91-1.78-.33-3.26-1.66-3.75-3.45l-8.37-30.99c-.39-1.43-.08-2.98.82-4.15.9-1.17,2.32-1.87,3.79-1.87h9.93c1.63,0,3.1.82,3.97,2.12.87-1.3,2.34-2.12,3.97-2.12h2.58c.02-.07.05-.15.07-.22.43-1.16,1.34-2.07,2.49-2.52.21-.09,2-.89,3.34-2.61,2.56-3.29,5.01-3.94,7.26-4.14.03,0,.05,0,.08,0,2.16-2.41,4.25-3.58,6.4-3.58,2.39,0,4.43,1.53,5.21,3.9.75,2.29-.17,4.18-.84,5.39.86,1.08,1.43,2.34,1.73,3.79h19.56c.3,0,.59.03.88.08.29-.06.59-.08.88-.08h21.54c1.2,0,2.3.45,3.15,1.18.85-.75,1.96-1.18,3.16-1.18h10.19c1,0,1.94.31,2.72.85.78-.54,1.72-.85,2.72-.85h21.54c.79,0,1.55.19,2.23.55,4.02-2.77,8.69-4.22,13.6-4.22,13.29,0,24.1,10.81,24.1,24.1,0,4.39-1.18,8.62-3.39,12.32.68-.38,1.47-.59,2.31-.59h21.71c2.64,0,4.78,2.14,4.78,4.78v9.07c0,1.6-.81,3.06-2.07,3.94v5.29c1.27.88,2.07,2.34,2.07,3.94v9.07c0,2.64-2.14,4.78-4.78,4.78h-30.39c-1.38,0-2.68-.6-3.58-1.62-.88.99-2.16,1.62-3.58,1.62h-9.07c-.13,0-.25,0-.39-.02-.13.01-.26.02-.39.02h-9.07c-2.16,0-4.06-1.46-4.62-3.55l-.04-.17h-2.07l-.03.12c-.54,2.12-2.45,3.6-4.63,3.6h-9.07c-1.51,0-2.95-.73-3.85-1.94-.9-1.22-1.17-2.8-.72-4.25l.25-.8s-.08.02-.12.03c-.45.12-.9.22-1.36.3v1.88c0,2.64-2.14,4.78-4.78,4.78h-9.07c-1.34,0-2.56-.55-3.43-1.45-2.48,2.07-5.42,3.48-8.65,4.13h-.07c-.14.04-.29.06-.43.09l-.3.05c-.1.02-.21.04-.31.05-.12.02-.25.04-.37.06l-17.25,2.1c-.31.04-.62.06-.93.06Z"/>
    <path class="st5" d="M217.55,76.09v-9.07h-21.71v7.08c.53,1.6.78,3.24.75,4.89-.03,1.47-.28,2.93-.75,4.36v7.86l3.5,5.59c.29.46.43.99.43,1.52h17.78v-9.07h-12.65v-2.76h10.58v-7.6h-10.58v-2.81h12.65Z"/>
    <path class="st5" d="M42.34,34.88h9.93l-8.37,30.99h-11.05l-8.37-30.99h9.93l3.97,15.5,3.97-15.5Z"/>
    <path class="st5" d="M160.48,67.03l9.67,31.3h-9.07l-.99-3.71h-9.45l-.95,3.71h-9.07l9.67-31.3h10.19ZM157.15,85.85l-1.77-7.21-1.81,7.21h3.58Z"/>
    <path class="st0" d="M65.05,28.45c-2.43-2.25,1.18-4.5.63-6.18-.52-1.6-2.25-1.15-4.45,1.36-2.2,2.51-3.86-.29-7.02,3.77-2.25,2.89-5.19,3.98-5.19,3.98.14.25.3.45.48.63h2.77c.58,0,1.13.17,1.6.49,1.51-.43,2.75-1.12,2.75-1.12,0,0-1,3.14.84,6.6,1.41-.16,4.48-4.24,4.48-4.24,0,0,1.28,5.55,6.1,4.82-3.04-2.72.19-7.17-2.99-10.11Z"/>
    <path class="st5" d="M80.92,86.76c-.09.14-.23.34-.43.58-.2.24-.4.44-.6.58-.66.6-1.41,1.05-2.24,1.34-.84.29-1.67.43-2.5.43-.98,0-1.93-.19-2.85-.58-.92-.39-1.74-.99-2.46-1.79-.63-.66-1.1-1.4-1.4-2.22s-.45-1.65-.45-2.48c0-.92.2-1.84.6-2.76.4-.92.98-1.71,1.73-2.37,1.44-1.18,3.02-1.77,4.75-1.77.98,0,1.94.19,2.89.58.95.39,1.8.99,2.55,1.79l6.82-5.96c-1.64-1.81-3.53-3.17-5.68-4.06-2.14-.89-4.35-1.34-6.63-1.34-.88,0-1.75.07-2.61.22-2.14,2.33-5.13,3.8-8.44,4.05-1.67,1.52-2.95,3.27-3.84,5.25-.92,2.06-1.38,4.18-1.38,6.37,0,1.9.36,3.78,1.08,5.63.72,1.86,1.77,3.55,3.15,5.07,1.61,1.67,3.5,2.96,5.65,3.89,2.16.92,4.33,1.38,6.52,1.38,1.99,0,3.93-.35,5.83-1.04,1.9-.69,3.64-1.71,5.22-3.06.14-.11.32-.28.54-.5s.43-.44.65-.67c.22-.23.42-.47.63-.71.2-.24.36-.45.47-.63l-7.55-5.22Z"/>
    <path class="st5" d="M98.24,54.72c.89.34,1.76.75,2.59,1.23,2.69,1.55,4.91,3.77,6.47,6.38v-18.39h6.22v-9.07h-21.54v9.07h6.26v10.77Z"/>
    <path class="st5" d="M57.14,89.28c-.84-2.18-1.27-4.42-1.27-6.67,0-.21,0-.42.02-.63-.56-.6-1.18-1.14-1.9-1.62-.86-.58-1.81-1.02-2.85-1.34l-4.92-1.6c-.32-.2-.58-.47-.8-.82-.22-.35-.17-.68.15-.99.4-.32.87-.52,1.4-.6.53-.09,1.09-.1,1.66-.04,1.01.14,2.12.37,3.32.69,1.21.32,2.27.66,3.19,1.04.11-1.96.19-3.42.22-4.38.03-.96.04-1.68.04-2.16v-1.04c-1.08-.53-2.15-1.17-3.21-1.92-.05-.03-.09-.07-.14-.1-.39-.07-.78-.13-1.16-.18-1.41-.17-2.84-.24-4.26-.2-.37,1.2-1.48,2.02-2.74,2.02h-4.62c-.71.51-1.32,1.08-1.81,1.72-.56.73-.97,1.53-1.23,2.4s-.39,1.76-.39,2.68c0,1.12.24,2.24.71,3.37.47,1.12,1.12,2.17,1.94,3.13.82.96,1.79,1.81,2.91,2.55,1.12.73,2.36,1.26,3.71,1.58.32.09.65.19.99.32.35.13.67.29.97.47.3.19.55.42.76.69.2.27.3.58.3.93-.06.49-.24.83-.56,1.01-.32.19-.71.3-1.17.32-.75,0-1.45-.11-2.09-.35-.65-.23-1.3-.47-1.96-.73l-2.03-.73c-.43-.17-.86-.34-1.3-.5-.43-.16-.86-.31-1.29-.45l-2.07,9.28c1.29.49,2.35.86,3.17,1.12.82.26,1.62.47,2.4.65.66.14,1.4.24,2.2.3.81.06,1.64.07,2.5.04.46,0,.89,0,1.3-.02.4-.01.7-.04.91-.06,1.47-.17,2.83-.54,4.08-1.1,1.25-.56,2.32-1.3,3.22-2.2.89-.91,1.59-1.97,2.09-3.19.13-.32.25-.65.34-1-.28-.55-.53-1.11-.75-1.68Z"/>
    <path class="st5" d="M142.6,61.49c1.17,1.91,2.92,3.51,4.95,4.67.38-1.19,1.48-2,2.73-2h5.05c-1.29-1.66-2.36-3.5-3.14-5.49-.77-.34-1.42-.91-1.79-1.71-.6-.61-.19-12-.3-13.01h6.22v-9.07h-21.54v9.07h6.26c.3,3.38-1.03,14.81,1.57,17.55Z"/>
    <path class="st5" d="M190.09,87.45c1.15-1.18,2.04-2.51,2.65-3.99.62-1.48.94-2.99.97-4.51.03-1.53-.24-3.02-.8-4.49-.56-1.47-1.42-2.78-2.57-3.93-.98-1.01-2.14-1.84-3.47-2.5-.09-.04-.18-.08-.27-.13-3.79,3.01-8.57,4.81-13.78,4.81-.64,0-1.28-.03-1.9-.09v18.5l1.96,6.35c.09.28.12.56.12.85h6.98v-7.47c0-.29.05-.5.15-.65.1-.14.28-.16.54-.04.26.12.65.46,1.19,1.04.53.58,1.22,1.43,2.07,2.57.85,1.14,1.92,2.65,3.22,4.55h9.76l-6.82-10.88ZM184.09,80.69c-.58.59-1.28.88-2.12.88h-2.07v-6h2.07c.83,0,1.54.29,2.12.86.58.58.86,1.28.86,2.12s-.29,1.55-.86,2.14Z"/>
    <path class="st5" d="M119.65,64.49l.52-2.03h9.45l.45,1.7c2.48,0,4.83.38,6.99,1.13.73.25,1.43.55,2.1.88h.52l-6.06-19.61c-1.01-.44-1.72-1.45-1.72-2.63v-2.93l-1.9-6.14h-10.19l-9.67,31.3h8.08c.23-.73.74-1.34,1.41-1.69ZM124.92,46.49l1.77,7.21h-3.58l1.81-7.21Z"/>
    <path class="st5" d="M142.27,70.81c-1.29-1.22-2.88-2.16-4.75-2.81-1.87-.65-3.9-.97-6.09-.97h-9.07v1.36c3.71,2.25,6.48,5.73,7.82,9.85.25.76.17,1.58-.22,2.28s-1.04,1.2-1.81,1.39l-5.8,1.46v.08c.38,2.09.39,4.26,0,6.39v8.48h9.07v-6.56c1.7.26,3.34.18,4.92-.24,1.38-.36,2.65-.93,3.8-1.69l4.71-15.24c-.61-1.47-1.48-2.74-2.6-3.8ZM135.63,81.6c-.58.59-1.28.88-2.12.88h-2.07v-6h2.07c.83,0,1.54.29,2.12.86.58.58.86,1.28.86,2.12s-.29,1.55-.86,2.14Z"/>
    <path class="st5" d="M68.82,52.69c.55-.23,2.8,2.23,3.05,5.24.32,3.9-2.83,7.33-3.4,7.08-.43-.19.81-2.37.83-6.48.02-3.65-.94-5.65-.48-5.84Z"/>
    <path class="st5" d="M83.43,65.73c.25-.43.6-.8,1.04-1.06.97-.57,2-1.04,3.05-1.41l-1.64-5.76c-.04-.13-.06-.26-.08-.39h-8.25v-2.76h9.48c.3-.21.65-.36,1.01-.43.03,0,.06,0,.08-.02v-7.15h-10.58v-2.81h11.55v-9.07h-20.12c.03.95.18,1.48.64,1.9.69.62.96,1.58.69,2.46-.25.85-.96,1.49-1.83,1.66v3.89c.37.49.79.95,1.28,1.38,5.29,4.59,7.26,10.98,5.13,16.67-.13.36-.29.7-.45,1.04.18,0,.36-.01.54-.01,2.64,0,5.24.52,7.73,1.56.24.1.47.21.7.31Z"/>
    <path class="st5" d="M172.83,62.92c-6.84,0-12.39-5.55-12.39-12.39,0-1.99.47-3.87,1.31-5.54l16.62,16.62c-1.67.84-3.55,1.31-5.54,1.31Z"/>
    <path class="st5" d="M183.91,56.07l-16.62-16.62c1.67-.84,3.55-1.31,5.54-1.31,6.84,0,12.39,5.55,12.39,12.39,0,1.99-.47,3.87-1.31,5.54Z"/>
    <path class="st0" d="M100.77,67.1c2.1,1.21,3.79,2.86,5.02,4.77,2.27.11,4.54.75,6.64,1.96,3.04,1.76,5.22,4.44,6.39,7.48l8.65-2.18c-1.12-3.44-3.47-6.5-6.86-8.45-4.35-2.51-9.41-2.63-13.69-.78-.53-4.63-3.17-8.96-7.52-11.46-3.38-1.95-7.21-2.46-10.75-1.71l2.44,8.59c3.22-.51,6.63.03,9.67,1.79Z"/>
    <path class="st4" d="M112.42,73.83c-2.1-1.21-4.37-1.85-6.64-1.96-1.23-1.91-2.92-3.56-5.02-4.77-4.76-2.75-10.41-2.54-14.84.05,1.27.86,2.44,1.87,3.51,3.05.52.57.78,1.32.74,2.09s-.4,1.49-.98,1.99l-6.82,5.96c-.54.47-1.22.71-1.89.71s-1.33-.23-1.87-.69c.04,1.4.27,2.78.69,4.11.3-.2.64-.35,1-.43.2-.04.39-.06.59-.06.58,0,1.15.18,1.64.52l7.55,5.22c1.29.89,1.62,2.65.75,3.95-.17.25-.38.53-.64.86-.24.3-.5.58-.75.85-.23.25-.47.5-.71.73-.28.28-.52.5-.74.68-.86.73-1.76,1.38-2.71,1.94l1.29,3.03c.5,1.18,1.72,1.88,2.99,1.72l17.25-2.1h-.02c4.45-.55,8.59-3.11,11.01-7.28,4.08-7.06,1.66-16.1-5.41-20.18ZM105.33,86.75c-3.16,5.27-9.45,7.14-9.77,6.66-.29-.43,4.31-2.49,7.46-7.88,3.62-6.22,2.61-12.24,3.14-12.23.59.01,2.77,7.47-.82,13.45Z"/>
    <path class="st6" d="M106.15,73.3c.59.01,2.77,7.47-.82,13.45-3.16,5.27-9.45,7.14-9.77,6.66-.29-.43,4.31-2.49,7.46-7.88,3.62-6.22,2.61-12.24,3.14-12.23Z"/>
    <path class="st6" d="M172.83,31.21c-5.29,0-10.09,2.13-13.58,5.58v6.83c0,1.58-1.28,2.87-2.87,2.87h-2.45c-.28,1.3-.43,2.65-.43,4.04,0,5.32,2.15,10.14,5.64,13.64h1.26c1.26,0,2.37.82,2.74,2.02l.4,1.28c2.76,1.52,5.92,2.38,9.29,2.38,10.67,0,19.32-8.65,19.32-19.32s-8.65-19.32-19.32-19.32ZM172.83,62.92c-6.84,0-12.39-5.55-12.39-12.39,0-1.99.47-3.87,1.31-5.54l16.62,16.62c-1.67.84-3.55,1.31-5.54,1.31ZM183.91,56.07l-16.62-16.62c1.67-.84,3.55-1.31,5.54-1.31,6.84,0,12.39,5.55,12.39,12.39,0,1.99-.47,3.87-1.31,5.54Z"/>
    <path class="st1" d="M68.21,47.96c-3.54-3.07-4.39-7.57-4.47-10.86-1.35-1.43-1.8-3.36-1.8-3.36,0,0-3.07,4.09-4.48,4.24-1.83-3.46-.84-6.6-.84-6.6,0,0-1.24.69-2.76,1.12.26.17.49.39.68.64.54.71.72,1.63.49,2.49l-6.58,24.35c1.17,1.88,2.83,3.66,5.12,5.28,15.21,10.76,26.93-6.61,14.63-17.29ZM68.47,65c-.43-.19.81-2.37.83-6.48.02-3.65-.94-5.65-.48-5.84.55-.23,2.8,2.23,3.05,5.24.32,3.9-2.83,7.33-3.4,7.08Z"/>
  </g>
</svg>