<?xml version="1.0" encoding="UTF-8"?>
<svg xmlns="http://www.w3.org/2000/svg" xmlns:xlink="http://www.w3.org/1999/xlink" version="1.1" viewBox="0 0 215.43 215.43">
  <defs>
    <style>
      .cls-1 {
        fill: #49b749;
      }

      .cls-2 {
        fill: url(#linear-gradient-2);
      }

      .cls-3 {
        fill: #231f20;
      }

      .cls-4 {
        fill: url(#linear-gradient);
      }

      .cls-5 {
        fill: #fff;
      }

      .cls-6 {
        fill: #ed2024;
      }

      .cls-7 {
        fill: #f6bc18;
      }
    </style>
    <linearGradient id="linear-gradient" x1="87.36" y1="108.41" x2="87.36" y2="145.9" gradientUnits="userSpaceOnUse">
      <stop offset="0" stop-color="#f58f87"/>
      <stop offset=".43" stop-color="#f16f6b"/>
      <stop offset=".82" stop-color="#ee4f4f"/>
    </linearGradient>
    <linearGradient id="linear-gradient-2" x1="49.85" y1="111.85" x2="49.85" y2="75.37" gradientUnits="userSpaceOnUse">
      <stop offset="0" stop-color="#b156a1"/>
      <stop offset="1" stop-color="#5e3e80"/>
    </linearGradient>
  </defs>
  <!-- Generator: Adobe Illustrator 28.6.0, SVG Export Plug-In . SVG Version: 1.2.0 Build 709)  -->
  <g>
    <g id="Artwork">
      <g>
        <path class="cls-3" d="M177.48,69.6l-89.55,89.55,7.54-.92c.25-.03.5-.07.74-.12.11-.02.47-.08.47-.08.26-.04.51-.08.83-.15,1.99-.4,3.93-1.01,5.77-1.83l80.41-80.42c-1.79-2.28-3.88-4.32-6.22-6.04Z"/>
        <path class="cls-3" d="M143.66,66.95c-.24-.01-.48-.02-.72-.02h-9.2l-85.09,85.09c.84.45,1.69.87,2.57,1.25,2.13.91,4.3,1.55,6.5,1.95l90.04-90.04c-1.4.5-2.78,1.08-4.11,1.77Z"/>
        <path class="cls-3" d="M160.47,63.41l-93.66,93.66c.57.44,1.17.84,1.8,1.21.42.24.85.46,1.28.66,1.87.86,3.84,1.33,5.88,1.43l94.69-94.69c-3.12-1.26-6.48-2.05-9.99-2.27Z"/>
        <path class="cls-3" d="M215.43,111.6c0-2.91-.96-5.6-2.57-7.79l-51.62,51.62h4.22c1.2,0,2.38-.16,3.51-.48,1.13.31,2.31.48,3.51.48h1.03l41.92-41.92v-1.91Z"/>
        <path class="cls-3" d="M202.25,98.41h-7.18l-56.76,56.76c1.07-.21,2.11-.53,3.07-.98,1.71.8,3.6,1.24,5.57,1.24h3.36l56.27-56.27c-1.36-.48-2.81-.75-4.33-.75Z"/>
        <path class="cls-3" d="M187.81,82.47l-72.96,72.96h1.71c1.84,0,3.59-.38,5.19-1.06,1.62.69,3.38,1.06,5.17,1.06h.2l63.27-63.27c-.35-3.42-1.24-6.67-2.58-9.69Z"/>
        <path class="cls-3" d="M76.42,66.93h-10.16c-.05-.61-.16-1.21-.29-1.81L11.14,119.94c0,2.86.59,5.69,1.74,8.42.1.23.2.45.3.68l-.33,1.46,63.57-63.57Z"/>
        <path class="cls-3" d="M121.86,66.93c-.9,0-1.79.09-2.66.27-.87-.18-1.76-.27-2.66-.27h-5.98L23.4,154.08c1.13.35,2.26.66,3.42.92,1.26.27,2.61.46,4.02.56.84.06,1.7.09,2.55.09.24,0,.48,0,.72,0l88.71-88.71h-.96Z"/>
        <path class="cls-3" d="M215.43,136.71v-3.34c0-2.29-.6-4.5-1.69-6.45.28-.49.52-1,.73-1.52l-30.03,30.03h12.27l18.72-18.72Z"/>
        <path class="cls-3" d="M212.12,150.95l-1.16,1.16c.41-.36.8-.75,1.16-1.16Z"/>
        <path class="cls-3" d="M62.07,58.08c-2.24-2.19-5.17-3.6-8.37-3.89L5.53,102.35l2.61,9.66,53.93-53.93Z"/>
        <path class="cls-3" d="M87.35,66.93L11.26,143.02c.62,2.98,2.26,5.69,4.65,7.62l83.71-83.71h-12.27Z"/>
        <path class="cls-3" d="M31.72,65.23c-1.01.48-1.95,1.09-2.78,1.81-.73.1-1.45.25-2.14.47-1.24-.38-2.55-.58-3.89-.58h-5.14L.6,84.09l2.61,9.66,28.51-28.51Z"/>
      </g>
      <g>
        <path class="cls-7" d="M190.41,98.41c.09-.99.14-1.98.14-2.98,0-1.11-.06-2.2-.17-3.28l-63.27,63.27h8.68c.86,0,1.69-.1,2.51-.26l56.76-56.76h-4.65Z"/>
        <path class="cls-7" d="M183.7,75.64l-80.41,80.42c.62-.27,1.23-.57,1.83-.89.84.17,1.7.26,2.57.26h7.17l72.96-72.96c-1.09-2.45-2.47-4.74-4.11-6.82Z"/>
        <path class="cls-7" d="M214.47,125.4c.62-1.54.96-3.21.96-4.93v-6.96l-41.92,41.92h10.93l30.03-30.03Z"/>
        <path class="cls-7" d="M215.43,142.24v-5.54l-18.72,18.72h5.54c3.34,0,6.38-1.26,8.71-3.31l1.16-1.16c2.05-2.33,3.31-5.37,3.31-8.71Z"/>
        <path class="cls-7" d="M158.45,63.34c-3.68,0-7.28.63-10.68,1.84l-90.04,90.04c1.68.3,3.37.46,5.06.46.79,0,1.57-.03,2.36-.09.52.53,1.07,1.02,1.66,1.48l93.66-93.66c-.67-.04-1.34-.07-2.02-.07Z"/>
        <path class="cls-7" d="M206.58,99.16l-56.27,56.27h5.52c.13,0,.25,0,.38,0,.13,0,.25,0,.38,0h4.66l51.62-51.62c-1.56-2.13-3.74-3.76-6.28-4.65Z"/>
        <path class="cls-7" d="M170.47,65.68l-94.69,94.69c.27.01.54.04.82.04.65,0,1.3-.04,1.94-.12l9.39-1.14,89.55-89.55c-2.15-1.59-4.5-2.91-7.01-3.92Z"/>
        <path class="cls-7" d="M65.62,63.8c-.73-2.23-1.97-4.17-3.55-5.72L8.14,112.01l.51,1.89c.49,1.81,1.36,3.47,2.52,4.88-.02.38-.03.76-.03,1.14,0,0,0,.01,0,.02l54.83-54.83c-.1-.44-.21-.88-.35-1.32Z"/>
        <path class="cls-7" d="M13.18,66.93c-4.08,0-7.99,1.93-10.47,5.17-2.48,3.24-3.32,7.52-2.26,11.45l.15.54,17.16-17.16h-4.58Z"/>
        <path class="cls-7" d="M122.82,66.93l-88.71,88.71c.11,0,.21,0,.32,0,.52,0,1.03-.01,1.56-.03.8-.03,1.45-.08,2.04-.16,2.73-.33,5.33-1.04,7.75-2.13.93-.42,1.83-.89,2.69-1.41.07.04.14.07.21.11l85.09-85.09h-10.93Z"/>
        <path class="cls-7" d="M53.69,54.19c-.42-.04-.83-.06-1.26-.06-3.68,0-7.14,1.37-10.3,4.07-3,.76-6.54,2.51-9.83,6.72-.02.02-.06.05-.09.07-.17.07-.33.16-.5.24L3.21,93.75l2.33,8.61,48.16-48.16Z"/>
        <path class="cls-7" d="M79.29,66.93c-.29,0-.58,0-.87.03-.29-.02-.58-.03-.87-.03h-1.14l-63.57,63.57-1.57,7.02c-.41,1.86-.4,3.73-.02,5.51l76.09-76.09h-8.06Z"/>
        <path class="cls-7" d="M106.55,66.93c-1.05,0-2.09.12-3.09.37-1-.24-2.04-.37-3.08-.37h-.76L15.91,150.64c1.06.86,2.26,1.57,3.59,2.07,1.49.56,2.77,1.01,3.8,1.34.03.01.07.02.11.03l87.16-87.16h-4Z"/>
      </g>
      <path class="cls-7" d="M76.59,153.32c-1.29,0-2.54-.28-3.72-.82-.26-.12-.5-.24-.72-.37-1.69-.97-2.98-2.44-3.74-4.23v-.02c-1.85.47-3.73.71-5.62.71-2.96,0-5.91-.62-8.78-1.84-2.15-.92-4.12-2.13-5.88-3.63-.09.1-.18.19-.27.29-1.4,1.43-3.09,2.58-5,3.44-1.78.8-3.71,1.32-5.75,1.57-.35.05-.81.08-1.41.11-.46.02-.93.02-1.42.03-.28,0-.6.01-.91.01-.69,0-1.38-.02-2.05-.07-1.07-.08-2.09-.22-3.02-.42-.95-.21-1.92-.47-2.89-.78-.91-.29-2.06-.69-3.43-1.21-2.82-1.07-4.45-4.09-3.8-7.03l2.03-9.09c.13-.57.34-1.12.62-1.64-.56-.87-1.05-1.79-1.45-2.73-.78-1.85-1.18-3.76-1.18-5.67,0-1.35.18-2.68.52-3.96-1.58-.76-2.79-2.18-3.26-3.91l-8.2-30.35c-.49-1.82-.1-3.8,1.04-5.3s2.96-2.39,4.84-2.39h9.72c1.44,0,2.81.5,3.89,1.4,1.08-.89,2.45-1.4,3.89-1.4h1.59c.63-1.18,1.67-2.1,2.93-2.58.01,0,1.55-.67,2.66-2.1,2.67-3.42,5.33-4.27,7.63-4.55,2.27-2.4,4.55-3.56,6.95-3.56,2.96,0,5.49,1.88,6.45,4.79.77,2.35.09,4.36-.51,5.6.48.74.85,1.54,1.13,2.41h18.06c.29,0,.58.02.87.06.29-.04.58-.06.87-.06h21.09c1.09,0,2.15.29,3.08.84.93-.54,1.99-.84,3.09-.84h9.98c.93,0,1.84.21,2.66.61.83-.4,1.73-.61,2.66-.61h21.09c.7,0,1.39.12,2.04.35,4.02-2.58,8.65-3.94,13.46-3.94,13.79,0,25.01,11.22,25.01,25.01,0,3.48-.73,6.91-2.12,10.06h20.9c3.36,0,6.1,2.74,6.1,6.1v8.88c0,1.74-.75,3.39-2.03,4.54v3.82c1.28,1.15,2.03,2.8,2.03,4.54v8.88c0,3.36-2.74,6.1-6.1,6.1h-29.76c-1.27,0-2.49-.39-3.51-1.11-1.02.72-2.24,1.11-3.51,1.11h-8.88c-.12,0-.25,0-.38-.01-.13,0-.26.01-.38.01h-8.88c-2.44,0-4.62-1.46-5.58-3.63h0c-.96,2.18-3.13,3.63-5.58,3.63h-8.88c-1.93,0-3.76-.93-4.91-2.48-.1-.13-.19-.26-.27-.4-1.08,1.73-3,2.88-5.18,2.88h-8.88c-1.22,0-2.39-.35-3.38-1.01-2.42,1.8-5.16,3.01-8.18,3.61-.22.04-.38.07-.54.1,0,0-.5.08-.62.1-.07.02-.23.04-.39.06l-16.9,2.06c-.36.04-.72.07-1.08.07Z"/>
      <g>
        <path class="cls-3" d="M76.59,151.9c-1.08,0-2.14-.23-3.13-.69-.22-.1-.42-.21-.61-.31-1.42-.82-2.51-2.05-3.15-3.55l-.5-1.17c-2.09.66-4.25,1-6.42,1-2.77,0-5.53-.58-8.22-1.73-2.46-1.05-4.67-2.52-6.57-4.36-.36.47-.74.91-1.15,1.33-1.28,1.3-2.82,2.36-4.57,3.14-1.65.74-3.44,1.23-5.33,1.45-.33.04-.75.08-1.29.1-.44.02-.9.02-1.36.02-.31,0-.61.01-.91.01-.66,0-1.32-.02-1.95-.07-1.01-.07-1.96-.2-2.82-.39-.91-.2-1.84-.45-2.76-.75-.89-.28-2.01-.68-3.35-1.18-2.16-.82-3.42-3.14-2.91-5.4l2.03-9.09c.16-.72.49-1.39.96-1.95-.75-1.03-1.37-2.12-1.86-3.28-.71-1.67-1.07-3.4-1.07-5.12,0-1.35.19-2.69.58-3.97.09-.3.19-.6.31-.89-1.74-.32-3.19-1.62-3.67-3.38l-8.2-30.35c-.38-1.4-.08-2.92.8-4.07.88-1.15,2.27-1.84,3.72-1.84h9.72c1.6,0,3.04.81,3.89,2.07.85-1.27,2.29-2.07,3.89-2.07h2.52c.02-.07.05-.14.07-.21.42-1.13,1.31-2.03,2.44-2.46.21-.09,1.96-.87,3.27-2.56,2.51-3.22,4.9-3.86,7.11-4.06.03,0,.05,0,.08,0,2.11-2.36,4.17-3.5,6.27-3.5,2.34,0,4.34,1.5,5.1,3.82.73,2.24-.17,4.09-.83,5.27.84,1.06,1.4,2.29,1.7,3.71h19.15c.29,0,.58.03.87.08.29-.05.58-.08.87-.08h21.09c1.18,0,2.26.44,3.08,1.16.83-.73,1.92-1.16,3.09-1.16h9.98c.98,0,1.9.3,2.66.83.76-.53,1.69-.83,2.66-.83h21.09c.77,0,1.52.19,2.19.54,3.93-2.71,8.51-4.13,13.32-4.13,13.01,0,23.6,10.59,23.6,23.6,0,4.3-1.16,8.44-3.32,12.06.67-.37,1.44-.58,2.26-.58h21.26c2.58,0,4.68,2.1,4.68,4.68v8.88c0,1.56-.79,3-2.03,3.85v5.18c1.24.86,2.03,2.29,2.03,3.85v8.88c0,2.58-2.1,4.68-4.68,4.68h-29.76c-1.35,0-2.63-.58-3.51-1.58-.86.97-2.11,1.58-3.51,1.58h-8.88c-.12,0-.25,0-.38-.02-.13.01-.26.02-.38.02h-8.88c-2.12,0-3.98-1.43-4.52-3.47l-.04-.16h-2.03l-.03.11c-.53,2.07-2.39,3.52-4.53,3.52h-8.88c-1.48,0-2.89-.71-3.77-1.9-.88-1.19-1.14-2.75-.71-4.16l.24-.78s-.08.02-.11.03c-.44.12-.88.21-1.33.29v1.84c0,2.58-2.1,4.68-4.68,4.68h-8.88c-1.32,0-2.51-.54-3.36-1.42-2.42,2.03-5.31,3.41-8.47,4.04h-.07c-.14.04-.28.06-.42.09l-.29.05c-.1.02-.2.04-.3.05-.12.02-.24.04-.36.06l-16.89,2.06c-.3.04-.61.06-.91.06Z"/>
        <path class="cls-5" d="M203.24,119.15v-8.88h-21.26v6.93c.52,1.56.76,3.17.73,4.79-.03,1.44-.27,2.87-.73,4.27v7.7l3.43,5.47c.29.46.42.97.42,1.49h17.41v-8.88h-12.39v-2.71h10.36v-7.44h-10.36v-2.75h12.39Z"/>
        <path class="cls-5" d="M31.67,78.79h9.72l-8.2,30.35h-10.82l-8.2-30.35h9.72l3.89,15.17,3.89-15.17Z"/>
        <path class="cls-5" d="M147.35,110.27l9.47,30.65h-8.88l-.97-3.64h-9.26l-.93,3.64h-8.88l9.47-30.65h9.98ZM144.1,128.7l-1.73-7.06-1.78,7.06h3.51Z"/>
        <path class="cls-1" d="M53.91,72.49c-2.38-2.2,1.16-4.41.62-6.05-.51-1.56-2.21-1.13-4.36,1.33-2.15,2.46-3.78-.28-6.87,3.69-2.2,2.83-5.08,3.9-5.08,3.9.13.24.29.44.47.62h2.71c.56,0,1.11.17,1.56.48,1.48-.42,2.7-1.1,2.7-1.1,0,0-.97,3.08.82,6.46,1.39-.15,4.39-4.16,4.39-4.16,0,0,1.25,5.44,5.97,4.72-2.98-2.67.19-7.02-2.92-9.9Z"/>
        <path class="cls-5" d="M69.45,129.59c-.08.14-.23.33-.42.57-.2.24-.39.43-.59.57-.65.59-1.38,1.03-2.2,1.31-.82.28-1.63.42-2.45.42-.96,0-1.89-.19-2.79-.57-.9-.38-1.71-.96-2.41-1.75-.62-.65-1.08-1.37-1.37-2.18s-.44-1.61-.44-2.43c0-.9.2-1.8.59-2.71.39-.9.96-1.68,1.69-2.32,1.41-1.16,2.96-1.73,4.65-1.73.96,0,1.9.19,2.83.57.93.38,1.76.97,2.49,1.75l6.68-5.83c-1.61-1.78-3.46-3.1-5.56-3.97-2.1-.87-4.26-1.31-6.49-1.31-.86,0-1.71.07-2.56.21-2.1,2.28-5.02,3.72-8.27,3.96-1.63,1.49-2.89,3.2-3.76,5.15-.9,2.02-1.35,4.09-1.35,6.24,0,1.86.35,3.7,1.06,5.52.7,1.82,1.73,3.47,3.09,4.97,1.58,1.63,3.42,2.9,5.54,3.8,2.11.9,4.24,1.35,6.38,1.35,1.94,0,3.85-.34,5.71-1.01,1.86-.68,3.56-1.68,5.11-3,.14-.11.32-.27.53-.49s.42-.43.63-.66c.21-.23.42-.46.61-.7.2-.24.35-.44.46-.61l-7.4-5.11Z"/>
        <path class="cls-5" d="M86.41,98.22c.87.33,1.72.74,2.54,1.21,2.63,1.52,4.8,3.69,6.34,6.25v-18.01h6.09v-8.88h-21.09v8.88h6.13v10.55Z"/>
        <path class="cls-5" d="M46.16,132.06c-.83-2.13-1.25-4.33-1.25-6.53,0-.2,0-.41.02-.61-.54-.59-1.16-1.12-1.86-1.59-.85-.56-1.78-1-2.79-1.31l-4.82-1.56c-.31-.2-.57-.46-.78-.8-.21-.34-.16-.66.15-.97.39-.31.85-.51,1.37-.59.52-.08,1.06-.1,1.63-.04.99.14,2.07.37,3.25.68,1.18.31,2.23.65,3.13,1.01.11-1.92.18-3.35.21-4.29.03-.94.04-1.65.04-2.11v-1.01c-1.06-.52-2.11-1.15-3.14-1.88-.05-.03-.09-.07-.13-.1-.38-.07-.76-.13-1.14-.18-1.39-.17-2.78-.23-4.18-.2-.36,1.17-1.45,1.98-2.68,1.98h-4.52c-.69.5-1.29,1.06-1.77,1.69-.55.72-.95,1.5-1.2,2.35s-.38,1.72-.38,2.62c0,1.1.23,2.2.7,3.3.47,1.1,1.1,2.12,1.9,3.06.8.94,1.75,1.78,2.85,2.49,1.1.72,2.31,1.23,3.64,1.54.31.08.63.19.97.32.34.13.66.28.95.47.3.18.54.41.74.68.2.27.3.57.3.91-.06.48-.24.81-.55.99-.31.18-.69.29-1.14.32-.73,0-1.42-.11-2.05-.34-.63-.23-1.28-.47-1.92-.72l-1.99-.72c-.42-.17-.85-.33-1.27-.49-.42-.15-.85-.3-1.27-.44l-2.03,9.09c1.27.48,2.3.85,3.11,1.1.8.25,1.59.47,2.35.63.65.14,1.37.24,2.16.3.79.06,1.61.07,2.45.04.45,0,.87,0,1.27-.02.39-.01.69-.04.89-.06,1.44-.17,2.77-.53,3.99-1.08,1.23-.55,2.28-1.27,3.15-2.16.87-.89,1.56-1.93,2.05-3.13.13-.32.24-.64.33-.98-.27-.54-.52-1.08-.73-1.64Z"/>
        <path class="cls-5" d="M129.85,104.85c1.15,1.87,2.86,3.43,4.85,4.57.37-1.16,1.45-1.96,2.68-1.96h4.95c-1.27-1.62-2.31-3.43-3.08-5.37-.75-.33-1.39-.89-1.76-1.68-.59-.6-.19-11.75-.3-12.74h6.09v-8.88h-21.09v8.88h6.13c.3,3.31-1.01,14.5,1.54,17.18Z"/>
        <path class="cls-5" d="M176.35,130.27c1.13-1.16,1.99-2.46,2.6-3.91.61-1.45.92-2.92.95-4.42.03-1.49-.23-2.96-.78-4.4-.55-1.44-1.39-2.72-2.52-3.85-.96-.99-2.09-1.8-3.4-2.45-.09-.04-.18-.08-.27-.12-3.71,2.95-8.39,4.71-13.49,4.71-.63,0-1.25-.03-1.86-.09v18.12l1.92,6.22c.08.27.12.55.12.83h6.83v-7.31c0-.28.05-.49.15-.63.1-.14.27-.15.53-.04.25.11.64.45,1.16,1.01.52.56,1.2,1.4,2.03,2.52.83,1.11,1.88,2.6,3.15,4.46h9.55l-6.68-10.65ZM170.47,123.65c-.56.58-1.25.87-2.07.87h-2.03v-5.88h2.03c.82,0,1.51.28,2.07.85.56.56.85,1.25.85,2.07s-.28,1.52-.85,2.09Z"/>
        <path class="cls-5" d="M107.38,107.78l.51-1.98h9.26l.45,1.66c2.43,0,4.73.37,6.84,1.1.72.25,1.4.54,2.05.87h.51l-5.93-19.2c-.99-.43-1.68-1.42-1.68-2.57v-2.87l-1.86-6.01h-9.98l-9.47,30.65h7.92c.22-.72.73-1.31,1.38-1.65ZM112.53,90.16l1.73,7.06h-3.51l1.78-7.06Z"/>
        <path class="cls-5" d="M129.53,113.97c-1.27-1.2-2.82-2.11-4.65-2.75-1.83-.63-3.82-.95-5.96-.95h-8.88v1.34c3.63,2.2,6.35,5.61,7.66,9.65.24.74.16,1.55-.21,2.23s-1.02,1.18-1.77,1.37l-5.68,1.43v.07c.38,2.05.38,4.17,0,6.26v8.31h8.88v-6.43c1.66.25,3.27.18,4.82-.23,1.35-.36,2.6-.91,3.72-1.65l4.61-14.92c-.6-1.44-1.45-2.68-2.54-3.72ZM123.02,124.54c-.56.58-1.25.87-2.07.87h-2.03v-5.88h2.03c.82,0,1.51.28,2.07.85.56.56.85,1.25.85,2.07s-.28,1.52-.85,2.09Z"/>
        <path class="cls-5" d="M57.6,96.23c.54-.22,2.74,2.18,2.98,5.13.32,3.82-2.77,7.17-3.33,6.93-.42-.18.79-2.32.81-6.34.02-3.58-.92-5.53-.47-5.72Z"/>
        <path class="cls-5" d="M71.91,109c.24-.42.59-.79,1.02-1.04.95-.56,1.95-1.02,2.99-1.38l-1.6-5.64c-.04-.13-.06-.26-.08-.39h-8.08v-2.71h9.28c.3-.2.63-.35.99-.42.03,0,.06,0,.08-.02v-7h-10.36v-2.75h11.31v-8.88h-19.71c.03.93.18,1.45.63,1.86.67.6.94,1.54.68,2.41-.25.83-.94,1.45-1.79,1.62v3.81c.36.48.77.93,1.25,1.35,5.18,4.5,7.11,10.75,5.03,16.32-.13.35-.28.69-.44,1.02.18,0,.36-.01.53-.01,2.59,0,5.13.51,7.57,1.53.23.1.46.2.69.31Z"/>
        <path class="cls-5" d="M159.44,106.25c-6.7,0-12.13-5.43-12.13-12.13,0-1.95.46-3.79,1.28-5.43l16.28,16.28c-1.63.82-3.48,1.28-5.43,1.28Z"/>
        <path class="cls-5" d="M170.29,99.54l-16.28-16.28c1.63-.82,3.48-1.28,5.43-1.28,6.7,0,12.13,5.43,12.13,12.13,0,1.95-.46,3.79-1.28,5.43Z"/>
        <path class="cls-1" d="M88.88,110.34c2.06,1.19,3.71,2.8,4.91,4.67,2.22.11,4.45.73,6.5,1.92,2.98,1.72,5.12,4.34,6.26,7.33l8.47-2.13c-1.1-3.37-3.4-6.36-6.72-8.28-4.26-2.46-9.22-2.58-13.4-.76-.52-4.53-3.11-8.77-7.36-11.23-3.31-1.91-7.06-2.41-10.53-1.68l2.39,8.41c3.15-.5,6.49.03,9.47,1.76Z"/>
        <path class="cls-4" d="M100.3,116.93c-2.06-1.19-4.28-1.81-6.5-1.92-1.2-1.87-2.86-3.48-4.91-4.67-4.66-2.69-10.2-2.49-14.54.04,1.24.84,2.39,1.83,3.44,2.99.51.56.77,1.3.72,2.05s-.39,1.45-.96,1.95l-6.68,5.83c-.53.46-1.19.69-1.85.69s-1.31-.23-1.83-.68c.04,1.37.27,2.73.68,4.03.29-.2.63-.34.98-.42.19-.04.38-.06.58-.06.57,0,1.13.18,1.61.51l7.4,5.11c1.26.87,1.59,2.59.74,3.87-.17.25-.37.52-.63.84-.24.29-.49.57-.73.84-.23.24-.46.49-.7.72-.27.27-.51.49-.72.66-.84.71-1.73,1.35-2.65,1.9l1.26,2.97c.49,1.15,1.68,1.84,2.92,1.69l16.89-2.06h-.01c4.35-.54,8.41-3.04,10.78-7.13,3.99-6.92,1.62-15.76-5.29-19.76ZM93.35,129.59c-3.09,5.16-9.25,6.99-9.57,6.52-.28-.42,4.22-2.44,7.3-7.72,3.55-6.09,2.55-11.98,3.07-11.97.57.01,2.71,7.32-.8,13.17Z"/>
        <path class="cls-6" d="M94.16,116.42c.57.01,2.71,7.32-.8,13.17-3.09,5.16-9.25,6.99-9.57,6.52-.28-.42,4.22-2.44,7.3-7.72,3.55-6.09,2.55-11.98,3.07-11.97Z"/>
        <path class="cls-6" d="M159.44,75.2c-5.18,0-9.88,2.09-13.29,5.46v6.69c0,1.55-1.26,2.81-2.81,2.81h-2.4c-.27,1.28-.42,2.6-.42,3.95,0,5.21,2.11,9.93,5.52,13.35h1.23c1.23,0,2.32.8,2.68,1.98l.39,1.25c2.7,1.48,5.8,2.33,9.1,2.33,10.45,0,18.92-8.47,18.92-18.92s-8.47-18.92-18.92-18.92ZM159.44,106.25c-6.7,0-12.13-5.43-12.13-12.13,0-1.95.46-3.79,1.28-5.43l16.28,16.28c-1.63.82-3.48,1.28-5.43,1.28ZM170.29,99.54l-16.28-16.28c1.63-.82,3.48-1.28,5.43-1.28,6.7,0,12.13,5.43,12.13,12.13,0,1.95-.46,3.79-1.28,5.43Z"/>
        <path class="cls-2" d="M57,91.6c-3.47-3.01-4.3-7.41-4.38-10.64-1.32-1.4-1.76-3.29-1.76-3.29,0,0-3.01,4-4.39,4.16-1.8-3.39-.82-6.46-.82-6.46,0,0-1.22.68-2.7,1.09.25.17.48.38.67.62.53.69.71,1.6.48,2.44l-6.44,23.84c1.14,1.84,2.77,3.58,5.01,5.17,14.89,10.54,26.37-6.47,14.33-16.93ZM57.25,108.29c-.42-.18.79-2.32.81-6.34.02-3.58-.92-5.53-.47-5.72.54-.22,2.74,2.18,2.98,5.13.32,3.82-2.77,7.17-3.33,6.93Z"/>
      </g>
    </g>
  </g>
</svg>